<svg xmlns="http://www.w3.org/2000/svg" width="580" height="300" viewBox="0 0 580 300" role="img"><defs><linearGradient id="background" x1="0" y1="0" x2="1" y2="1"><stop offset="0%" stop-color="#111629"/><stop offset="58%" stop-color="#171a2b"/><stop offset="100%" stop-color="#251b3f"/></linearGradient><linearGradient id="accent" x1="0" y1="0" x2="1" y2="0"><stop offset="0%" stop-color="#8bd5ff"/><stop offset="55%" stop-color="#a98cff"/><stop offset="100%" stop-color="#ff8ec7"/></linearGradient></defs><rect width="100%" height="100%" rx="18" fill="url(#background)"/><rect x="1" y="1" width="578" height="298" rx="17" fill="none" stroke="#343a5b"/><g font-family="Inter, -apple-system, BlinkMacSystemFont, Segoe UI, sans-serif"><text x="28" y="40" fill="#f5f7ff" font-size="20" font-weight="700">When the workshop comes alive</text><text x="28" y="65" fill="#929dbd" font-size="13">Based on recent public activity • UTC+8</text><text x="28" y="101" fill="#e9ecf7" font-size="14">Night</text><text x="112" y="101" fill="#7783a7" font-size="12">00–05</text><rect x="170" y="87" width="270" height="12" rx="6" fill="#2a304a"/><rect x="170" y="87" width="82" height="12" rx="6" fill="#7868d8"/><text x="548" y="101" text-anchor="end" fill="#aeb7d4" font-size="13">14 events</text><text x="28" y="145" fill="#e9ecf7" font-size="14">Morning</text><text x="112" y="145" fill="#7783a7" font-size="12">06–11</text><rect x="170" y="131" width="270" height="12" rx="6" fill="#2a304a"/><rect x="170" y="131" width="0" height="12" rx="6" fill="#8bd5ff"/><text x="548" y="145" text-anchor="end" fill="#aeb7d4" font-size="13">0 events</text><text x="28" y="189" fill="#e9ecf7" font-size="14">Afternoon</text><text x="112" y="189" fill="#7783a7" font-size="12">12–17</text><rect x="170" y="175" width="270" height="12" rx="6" fill="#2a304a"/><rect x="170" y="175" width="235" height="12" rx="6" fill="#a98cff"/><text x="548" y="189" text-anchor="end" fill="#aeb7d4" font-size="13">40 events</text><text x="28" y="233" fill="#e9ecf7" font-size="14">Evening</text><text x="112" y="233" fill="#7783a7" font-size="12">18–23</text><rect x="170" y="219" width="270" height="12" rx="6" fill="#2a304a"/><rect x="170" y="219" width="270" height="12" rx="6" fill="#ff8ec7"/><text x="548" y="233" text-anchor="end" fill="#aeb7d4" font-size="13">46 events</text></g></svg>
